<svg xmlns="http://www.w3.org/2000/svg" version="1.1" viewBox="-5.0 -10.0 110.0 135.0">
 <g>
  <path d="m25.641 27.602c-3.25 3.4688-3.6406 3.8516-4.2305 4.1484-0.80078 0.39844-1.5 1-1.8789 1.6094-0.19922 0.32812-1.3594 1.3516-4.2617 3.7617-3.5312 2.9219-3.9688 3.3203-3.8398 3.4492 0.078124 0.078126 1.7617 1.4883 3.7305 3.1211 3.5391 2.9219 3.5898 2.9805 3.6211 3.3594l0.03125 0.39844-3.7617 3.0898c-2.0586 1.6992-3.75 3.1211-3.7383 3.1484 0 0.03125 1.6914 1.4492 3.75 3.1484 3.6914 3.0508 3.7383 3.1016 3.7383 3.4688 0 0.35937-0.050781 0.41016-3.7383 3.4492-2.0586 1.6992-3.75 3.1211-3.75 3.1484-0.011719 0.03125 1.7383 1.5117 3.8789 3.2812 3.3203 2.75 3.9414 3.3008 4.25 3.8086 0.48047 0.76953 1.1406 1.3398 2.0586 1.7891l0.75 0.35938h63l0.69141-0.32812c1.2812-0.60156 2.0898-1.4688 2.5195-2.6992l0.23828-0.67188v-17.148h-2.0508l-1.5312-2.3984c-0.85156-1.3203-1.5508-2.3984-1.5703-2.3984s-0.71875 1.0781-1.5703 2.3984c-0.83984 1.3203-1.5703 2.3984-1.6289 2.3984-0.050781 0-0.78906-1.0781-1.6289-2.3984-0.85156-1.3203-1.5508-2.3984-1.5703-2.3984-0.019532 0-0.71875 1.0781-1.5703 2.3984-0.83984 1.3203-1.5703 2.3984-1.6289 2.3984-0.050781 0-0.78906-1.0781-1.6289-2.3984-0.85156-1.3203-1.5508-2.3984-1.5703-2.3984s-0.71875 1.0781-1.5703 2.3984c-0.83984 1.3203-1.5703 2.3984-1.6289 2.3984-0.050781 0-0.78906-1.0781-1.6289-2.3984-0.85156-1.3203-1.5508-2.3984-1.5703-2.3984-0.019531 0-0.71875 1.0781-1.5703 2.3984-0.83984 1.3203-1.5703 2.3984-1.6289 2.3984-0.050782 0-0.78906-1.0781-1.6289-2.3984-0.85156-1.3203-1.5508-2.3984-1.5703-2.3984s-0.71875 1.0781-1.5703 2.3984l-1.5312 2.3984h-1.0508v-11.898h3.0508l1.5312 2.3984c0.85156 1.3203 1.5508 2.3984 1.5703 2.3984s0.71875-1.0781 1.5703-2.3984c0.83984-1.3203 1.5781-2.3984 1.6289-2.3984 0.058594 0 0.78906 1.0781 1.6289 2.3984 0.85156 1.3203 1.5508 2.3984 1.5703 2.3984 0.019532 0 0.71875-1.0781 1.5703-2.3984 0.83984-1.3203 1.5781-2.3984 1.6289-2.3984 0.058594 0 0.78906 1.0781 1.6289 2.3984 0.85156 1.3203 1.5508 2.3984 1.5703 2.3984s0.71875-1.0781 1.5703-2.3984c0.83984-1.3203 1.5781-2.3984 1.6289-2.3984 0.058593 0 0.73828 1 1.5195 2.2305 0.78125 1.2188 1.4805 2.3008 1.5586 2.4102 0.12109 0.17188 0.26172-0.019531 1.6797-2.2305 0.85156-1.3203 1.5898-2.4102 1.6406-2.4102 0.058594 0 0.78906 1.0781 1.6289 2.3984 0.85156 1.3203 1.5508 2.3984 1.5703 2.3984s0.73047-1.1016 1.5898-2.4297l1.5586-2.4414v-4.1211c0-3.8984-0.011718-4.1484-0.21094-4.7383-0.42188-1.25-1.1719-2.0898-2.4414-2.75l-0.69922-0.37109-2.0195-0.03125-2.0195-0.039063-3.3398-3.5586c-1.8398-1.9688-3.4414-3.6484-3.5508-3.75-0.19922-0.17969-0.25-0.12109-3.7188 3.5703l-3.5312 3.7617h-0.84375l-3.3516-3.5781c-1.8516-1.9609-3.4492-3.6484-3.5586-3.75-0.19922-0.17969-0.25-0.12109-3.7188 3.5703l-3.5312 3.7617h-0.84375l-3.3516-3.5781c-1.8516-1.9609-3.4492-3.6484-3.5586-3.75-0.19922-0.17969-0.25-0.12109-3.7188 3.5703l-3.5312 3.7617h-0.84375l-3.3516-3.5781c-1.8516-1.9609-3.4492-3.6484-3.5586-3.75-0.19922-0.17969-0.25-0.12891-3.7812 3.6289zm13.809 6.0391c0.83984 0.39844 1.5391 1.1094 1.9297 1.9414 0.23828 0.51172 0.26953 0.69141 0.26953 1.6719 0 1.0117-0.019532 1.1484-0.28906 1.6992-0.42188 0.85156-1.2617 1.6484-2.1016 1.9805-0.94141 0.37891-2.0781 0.37891-3.0195 0-0.83984-0.32812-1.6797-1.1289-2.1016-1.9805-0.26953-0.55078-0.28906-0.69141-0.28906-1.6992 0-1.0117 0.019532-1.1484 0.28906-1.6992 0.41016-0.82813 1.2617-1.6484 2.0703-1.9805 0.53125-0.21875 0.80078-0.26172 1.5898-0.26953 0.87891 0 1.0117 0.03125 1.6484 0.33984zm45.988-0.078125c0.19922 0.21094 0.26172 0.37109 0.26172 0.69141 0 0.32031-0.058594 0.48047-0.26172 0.69141-0.21094 0.19922-0.37109 0.26172-0.69141 0.26172-0.32031 0-0.48047-0.058593-0.69141-0.26172-0.19922-0.21094-0.26172-0.37109-0.26172-0.69141 0-0.32031 0.058593-0.48047 0.26172-0.69141 0.21094-0.19922 0.37109-0.26172 0.69141-0.26172 0.32031 0 0.48047 0.058594 0.69141 0.26172z"/>
  <path d="m35.68 35.82c-0.28906 0.48047-0.37891 0.80859-0.37891 1.4414 0 1.4297 1.0117 2.4414 2.4492 2.4414 0.69141 0 1.0312-0.12109 1.6289-0.57031 0.35156-0.26172 0.76172-0.96875 0.69141-1.1719-0.039062-0.10156-4.0781-2.3594-4.2188-2.3594-0.011718 0-0.089843 0.10156-0.17187 0.21875z"/>
 </g>
<text x="0.0" y="117.5" font-size="5.0" font-weight="bold" font-family="Arbeit Regular, Helvetica, Arial-Unicode, Arial, Sans-serif" fill="#000000">Created by B,D</text><text x="0.0" y="122.5" font-size="5.0" font-weight="bold" font-family="Arbeit Regular, Helvetica, Arial-Unicode, Arial, Sans-serif" fill="#000000">from Noun Project</text></svg>